<svg width="130" height="32" viewBox="0 0 130 32" fill="none" xmlns="http://www.w3.org/2000/svg">
<mask id="mask0_38_779" style="mask-type:alpha" maskUnits="userSpaceOnUse" x="16" y="6" width="20" height="20">
<rect x="16" y="6" width="20" height="20" fill="#D9D9D9"/>
</mask>
<g mask="url(#mask0_38_779)">
<path d="M16.7101 19.4459L20.5953 14.2737C20.6925 14.1442 20.8098 14.0471 20.9474 13.9823C21.085 13.9176 21.2267 13.8852 21.3724 13.8852C21.5181 13.8852 21.6597 13.9176 21.7973 13.9823C21.9349 14.0471 22.0523 14.1442 22.1494 14.2737L25.4519 18.6689C25.549 18.7984 25.6623 18.8955 25.7918 18.9603C25.9213 19.025 26.067 19.0574 26.2289 19.0574C26.6336 19.0574 26.925 18.8753 27.1031 18.511C27.2811 18.1468 27.2488 17.8028 27.0059 17.479L24.9662 14.7837C24.8367 14.6056 24.7719 14.4113 24.7719 14.2009C24.7719 13.9904 24.8367 13.7962 24.9662 13.6181L27.3945 10.3885C27.4916 10.259 27.609 10.1619 27.7466 10.0971C27.8842 10.0324 28.0258 10 28.1715 10C28.3172 10 28.4589 10.0324 28.5965 10.0971C28.7341 10.1619 28.8514 10.259 28.9486 10.3885L35.7477 19.4459C35.9905 19.7697 36.0229 20.1096 35.8448 20.4658C35.6667 20.8219 35.3753 21 34.9706 21H17.4872C17.0825 21 16.7911 20.8219 16.613 20.4658C16.4349 20.1096 16.4673 19.7697 16.7101 19.4459Z" fill="#18181B"/>
</g>
<path d="M42.1974 11.5455L44.658 18.9872H44.755L47.2109 11.5455H49.0945L45.7614 21H43.647L40.3185 11.5455H42.1974ZM51.57 21.1431C51.1207 21.1431 50.716 21.0631 50.3559 20.9031C49.9989 20.7399 49.7158 20.4999 49.5065 20.1829C49.3003 19.8659 49.1972 19.475 49.1972 19.0103C49.1972 18.6102 49.271 18.2794 49.4188 18.0178C49.5665 17.7562 49.7681 17.5469 50.0235 17.3899C50.279 17.233 50.5667 17.1145 50.8868 17.0344C51.21 16.9513 51.5439 16.8913 51.8886 16.8544C52.3041 16.8113 52.6411 16.7728 52.8996 16.739C53.1581 16.7021 53.3459 16.6467 53.4628 16.5728C53.5828 16.4959 53.6428 16.3774 53.6428 16.2173V16.1896C53.6428 15.8419 53.5397 15.5726 53.3335 15.3817C53.1273 15.1909 52.8303 15.0955 52.4426 15.0955C52.0332 15.0955 51.7085 15.1848 51.4685 15.3633C51.2315 15.5418 51.0715 15.7526 50.9884 15.9957L49.428 15.7741C49.5511 15.3433 49.7542 14.9832 50.0374 14.6939C50.3205 14.4015 50.6668 14.183 51.0761 14.0384C51.4854 13.8906 51.9378 13.8168 52.4333 13.8168C52.7749 13.8168 53.115 13.8568 53.4536 13.9368C53.7921 14.0168 54.1014 14.1491 54.3815 14.3338C54.6615 14.5154 54.8862 14.7631 55.0555 15.0771C55.2278 15.391 55.314 15.7834 55.314 16.2543V21H53.7075V20.0259H53.6521C53.5505 20.2229 53.4074 20.4076 53.2227 20.5799C53.0412 20.7492 52.8119 20.8861 52.5349 20.9908C52.261 21.0923 51.9394 21.1431 51.57 21.1431ZM52.004 19.9151C52.3395 19.9151 52.6303 19.849 52.8765 19.7166C53.1227 19.5812 53.312 19.4027 53.4443 19.1811C53.5798 18.9595 53.6475 18.7179 53.6475 18.4563V17.6207C53.5951 17.6638 53.5059 17.7038 53.3797 17.7408C53.2566 17.7777 53.1181 17.81 52.9642 17.8377C52.8103 17.8654 52.658 17.89 52.5072 17.9116C52.3564 17.9331 52.2256 17.9516 52.1148 17.967C51.8655 18.0008 51.6424 18.0562 51.4454 18.1332C51.2484 18.2101 51.093 18.3178 50.9791 18.4563C50.8653 18.5917 50.8083 18.7672 50.8083 18.9826C50.8083 19.2904 50.9207 19.5227 51.1453 19.6797C51.37 19.8366 51.6562 19.9151 52.004 19.9151ZM58.6656 11.5455V21H56.9944V11.5455H58.6656ZM62.4245 21.1431C61.9752 21.1431 61.5705 21.0631 61.2104 20.9031C60.8534 20.7399 60.5703 20.4999 60.361 20.1829C60.1548 19.8659 60.0517 19.475 60.0517 19.0103C60.0517 18.6102 60.1255 18.2794 60.2733 18.0178C60.421 17.7562 60.6226 17.5469 60.878 17.3899C61.1335 17.233 61.4212 17.1145 61.7413 17.0344C62.0645 16.9513 62.3984 16.8913 62.7431 16.8544C63.1586 16.8113 63.4956 16.7728 63.7541 16.739C64.0126 16.7021 64.2003 16.6467 64.3173 16.5728C64.4373 16.4959 64.4973 16.3774 64.4973 16.2173V16.1896C64.4973 15.8419 64.3942 15.5726 64.188 15.3817C63.9818 15.1909 63.6848 15.0955 63.2971 15.0955C62.8877 15.0955 62.563 15.1848 62.323 15.3633C62.086 15.5418 61.926 15.7526 61.8429 15.9957L60.2825 15.7741C60.4056 15.3433 60.6087 14.9832 60.8919 14.6939C61.175 14.4015 61.5212 14.183 61.9306 14.0384C62.3399 13.8906 62.7923 13.8168 63.2878 13.8168C63.6294 13.8168 63.9695 13.8568 64.3081 13.9368C64.6466 14.0168 64.9559 14.1491 65.236 14.3338C65.516 14.5154 65.7407 14.7631 65.91 15.0771C66.0823 15.391 66.1685 15.7834 66.1685 16.2543V21H64.562V20.0259H64.5066C64.405 20.2229 64.2619 20.4076 64.0772 20.5799C63.8957 20.7492 63.6664 20.8861 63.3894 20.9908C63.1155 21.0923 62.7939 21.1431 62.4245 21.1431ZM62.8585 19.9151C63.194 19.9151 63.4848 19.849 63.731 19.7166C63.9772 19.5812 64.1665 19.4027 64.2988 19.1811C64.4342 18.9595 64.502 18.7179 64.502 18.4563V17.6207C64.4496 17.6638 64.3604 17.7038 64.2342 17.7408C64.1111 17.7777 63.9726 17.81 63.8187 17.8377C63.6648 17.8654 63.5125 17.89 63.3617 17.9116C63.2109 17.9331 63.0801 17.9516 62.9693 17.967C62.72 18.0008 62.4969 18.0562 62.2999 18.1332C62.1029 18.2101 61.9475 18.3178 61.8336 18.4563C61.7198 18.5917 61.6628 18.7672 61.6628 18.9826C61.6628 19.2904 61.7752 19.5227 61.9998 19.6797C62.2245 19.8366 62.5107 19.9151 62.8585 19.9151ZM67.8489 21V13.9091H69.5201V21H67.8489ZM68.6891 12.9027C68.4244 12.9027 68.1967 12.815 68.0059 12.6396C67.815 12.4611 67.7196 12.2472 67.7196 11.9979C67.7196 11.7455 67.815 11.5316 68.0059 11.3562C68.1967 11.1777 68.4244 11.0884 68.6891 11.0884C68.9569 11.0884 69.1846 11.1777 69.3723 11.3562C69.5632 11.5316 69.6586 11.7455 69.6586 11.9979C69.6586 12.2472 69.5632 12.4611 69.3723 12.6396C69.1846 12.815 68.9569 12.9027 68.6891 12.9027ZM74.7794 13.9091V15.2017H70.703V13.9091H74.7794ZM71.7094 12.2102H73.3806V18.8672C73.3806 19.0919 73.4144 19.2642 73.4822 19.3842C73.5529 19.5012 73.6453 19.5812 73.7591 19.6243C73.873 19.6674 73.9992 19.6889 74.1377 19.6889C74.2423 19.6889 74.3377 19.6812 74.4239 19.6658C74.5132 19.6504 74.5809 19.6366 74.627 19.6243L74.9086 20.9308C74.8194 20.9615 74.6917 20.9954 74.5255 21.0323C74.3624 21.0692 74.1623 21.0908 73.9253 21.0969C73.5068 21.1093 73.1298 21.0462 72.7943 20.9077C72.4588 20.7661 72.1926 20.5476 71.9956 20.2521C71.8018 19.9567 71.7064 19.5874 71.7094 19.1442V12.2102ZM78.0005 16.8452V21H76.3294V11.5455H77.9636V15.114H78.0467C78.2129 14.7139 78.4699 14.3984 78.8176 14.1676C79.1685 13.9337 79.6148 13.8168 80.1564 13.8168C80.6489 13.8168 81.0782 13.9199 81.4444 14.1261C81.8107 14.3323 82.0938 14.6339 82.2939 15.0309C82.497 15.4279 82.5985 15.9126 82.5985 16.4851V21H80.9274V16.7436C80.9274 16.2666 80.8043 15.8957 80.5581 15.631C80.3149 15.3633 79.9733 15.2294 79.5332 15.2294C79.2377 15.2294 78.9731 15.294 78.7392 15.4233C78.5083 15.5495 78.3268 15.7326 78.1944 15.9727C78.0652 16.2127 78.0005 16.5036 78.0005 16.8452ZM86.3425 21.1431C85.8932 21.1431 85.4885 21.0631 85.1284 20.9031C84.7714 20.7399 84.4882 20.4999 84.2789 20.1829C84.0727 19.8659 83.9696 19.475 83.9696 19.0103C83.9696 18.6102 84.0435 18.2794 84.1912 18.0178C84.339 17.7562 84.5405 17.5469 84.796 17.3899C85.0514 17.233 85.3392 17.1145 85.6593 17.0344C85.9824 16.9513 86.3163 16.8913 86.661 16.8544C87.0765 16.8113 87.4135 16.7728 87.6721 16.739C87.9306 16.7021 88.1183 16.6467 88.2353 16.5728C88.3553 16.4959 88.4153 16.3774 88.4153 16.2173V16.1896C88.4153 15.8419 88.3122 15.5726 88.106 15.3817C87.8998 15.1909 87.6028 15.0955 87.215 15.0955C86.8057 15.0955 86.481 15.1848 86.2409 15.3633C86.004 15.5418 85.8439 15.7526 85.7608 15.9957L84.2005 15.7741C84.3236 15.3433 84.5267 14.9832 84.8098 14.6939C85.093 14.4015 85.4392 14.183 85.8485 14.0384C86.2579 13.8906 86.7103 13.8168 87.2058 13.8168C87.5474 13.8168 87.8875 13.8568 88.226 13.9368C88.5646 14.0168 88.8739 14.1491 89.1539 14.3338C89.434 14.5154 89.6587 14.7631 89.8279 15.0771C90.0003 15.391 90.0865 15.7834 90.0865 16.2543V21H88.4799V20.0259H88.4245C88.323 20.2229 88.1799 20.4076 87.9952 20.5799C87.8136 20.7492 87.5843 20.8861 87.3074 20.9908C87.0334 21.0923 86.7118 21.1431 86.3425 21.1431ZM86.7765 19.9151C87.1119 19.9151 87.4028 19.849 87.649 19.7166C87.8952 19.5812 88.0845 19.4027 88.2168 19.1811C88.3522 18.9595 88.4199 18.7179 88.4199 18.4563V17.6207C88.3676 17.6638 88.2784 17.7038 88.1522 17.7408C88.0291 17.7777 87.8906 17.81 87.7367 17.8377C87.5828 17.8654 87.4305 17.89 87.2797 17.9116C87.1288 17.9331 86.998 17.9516 86.8873 17.967C86.638 18.0008 86.4148 18.0562 86.2179 18.1332C86.0209 18.2101 85.8655 18.3178 85.7516 18.4563C85.6377 18.5917 85.5808 18.7672 85.5808 18.9826C85.5808 19.2904 85.6931 19.5227 85.9178 19.6797C86.1425 19.8366 86.4287 19.9151 86.7765 19.9151ZM93.438 11.5455V21H91.7669V11.5455H93.438ZM97.197 21.1431C96.7477 21.1431 96.343 21.0631 95.9829 20.9031C95.6259 20.7399 95.3427 20.4999 95.1334 20.1829C94.9272 19.8659 94.8241 19.475 94.8241 19.0103C94.8241 18.6102 94.898 18.2794 95.0457 18.0178C95.1934 17.7562 95.395 17.5469 95.6505 17.3899C95.9059 17.233 96.1937 17.1145 96.5138 17.0344C96.8369 16.9513 97.1708 16.8913 97.5155 16.8544C97.931 16.8113 98.268 16.7728 98.5265 16.739C98.7851 16.7021 98.9728 16.6467 99.0898 16.5728C99.2098 16.4959 99.2698 16.3774 99.2698 16.2173V16.1896C99.2698 15.8419 99.1667 15.5726 98.9605 15.3817C98.7543 15.1909 98.4573 15.0955 98.0695 15.0955C97.6602 15.0955 97.3355 15.1848 97.0954 15.3633C96.8585 15.5418 96.6984 15.7526 96.6153 15.9957L95.055 15.7741C95.1781 15.3433 95.3812 14.9832 95.6643 14.6939C95.9475 14.4015 96.2937 14.183 96.703 14.0384C97.1124 13.8906 97.5648 13.8168 98.0603 13.8168C98.4019 13.8168 98.742 13.8568 99.0805 13.9368C99.4191 14.0168 99.7284 14.1491 100.008 14.3338C100.289 14.5154 100.513 14.7631 100.682 15.0771C100.855 15.391 100.941 15.7834 100.941 16.2543V21H99.3344V20.0259H99.279C99.1775 20.2229 99.0344 20.4076 98.8497 20.5799C98.6681 20.7492 98.4388 20.8861 98.1618 20.9908C97.8879 21.0923 97.5663 21.1431 97.197 21.1431ZM97.6309 19.9151C97.9664 19.9151 98.2573 19.849 98.5035 19.7166C98.7497 19.5812 98.939 19.4027 99.0713 19.1811C99.2067 18.9595 99.2744 18.7179 99.2744 18.4563V17.6207C99.2221 17.6638 99.1328 17.7038 99.0067 17.7408C98.8836 17.7777 98.7451 17.81 98.5912 17.8377C98.4373 17.8654 98.2849 17.89 98.1341 17.9116C97.9833 17.9331 97.8525 17.9516 97.7417 17.967C97.4925 18.0008 97.2693 18.0562 97.0724 18.1332C96.8754 18.2101 96.72 18.3178 96.6061 18.4563C96.4922 18.5917 96.4353 18.7672 96.4353 18.9826C96.4353 19.2904 96.5476 19.5227 96.7723 19.6797C96.997 19.8366 97.2832 19.9151 97.6309 19.9151ZM102.621 21V13.9091H104.219V15.114H104.302C104.449 14.7077 104.694 14.3907 105.036 14.163C105.377 13.9322 105.785 13.8168 106.259 13.8168C106.739 13.8168 107.144 13.9337 107.473 14.1676C107.806 14.3984 108.04 14.7139 108.175 15.114H108.249C108.406 14.7201 108.67 14.4061 109.043 14.1722C109.418 13.9353 109.863 13.8168 110.377 13.8168C111.03 13.8168 111.562 14.023 111.974 14.4354C112.387 14.8478 112.593 15.4495 112.593 16.2404V21H110.917V16.4989C110.917 16.0588 110.8 15.7372 110.566 15.5341C110.332 15.3279 110.046 15.2248 109.708 15.2248C109.304 15.2248 108.989 15.351 108.761 15.6033C108.537 15.8526 108.424 16.1773 108.424 16.5774V21H106.785V16.4297C106.785 16.0634 106.675 15.7711 106.453 15.5526C106.235 15.334 105.948 15.2248 105.594 15.2248C105.354 15.2248 105.136 15.2863 104.939 15.4094C104.742 15.5295 104.585 15.7003 104.468 15.9219C104.351 16.1404 104.293 16.3958 104.293 16.6882V21H102.621Z" fill="#18181B"/>
</svg>
