<svg width="130" height="32" viewBox="0 0 130 32" fill="none" xmlns="http://www.w3.org/2000/svg">
<mask id="mask0_11_744" style="mask-type:alpha" maskUnits="userSpaceOnUse" x="16" y="6" width="21" height="20">
<rect x="16.5" y="6" width="20" height="20" fill="#D9D9D9"/>
</mask>
<g mask="url(#mask0_11_744)">
<path d="M17.2101 19.4459L21.0953 14.2737C21.1925 14.1442 21.3098 14.0471 21.4474 13.9823C21.585 13.9176 21.7267 13.8852 21.8724 13.8852C22.0181 13.8852 22.1597 13.9176 22.2973 13.9823C22.4349 14.0471 22.5523 14.1442 22.6494 14.2737L25.9519 18.6689C26.049 18.7984 26.1623 18.8955 26.2918 18.9603C26.4213 19.025 26.567 19.0574 26.7289 19.0574C27.1336 19.0574 27.425 18.8753 27.6031 18.511C27.7811 18.1468 27.7488 17.8028 27.5059 17.479L25.4662 14.7837C25.3367 14.6056 25.2719 14.4113 25.2719 14.2009C25.2719 13.9904 25.3367 13.7962 25.4662 13.6181L27.8945 10.3885C27.9916 10.259 28.109 10.1619 28.2466 10.0971C28.3842 10.0324 28.5258 10 28.6715 10C28.8172 10 28.9589 10.0324 29.0965 10.0971C29.2341 10.1619 29.3514 10.259 29.4486 10.3885L36.2477 19.4459C36.4905 19.7697 36.5229 20.1096 36.3448 20.4658C36.1667 20.8219 35.8753 21 35.4706 21H17.9872C17.5825 21 17.2911 20.8219 17.113 20.4658C16.9349 20.1096 16.9673 19.7697 17.2101 19.4459Z" fill="#18181B"/>
</g>
<path d="M42.3651 11.5455L44.9964 19.2457H45.1026L47.734 11.5455H49.2759L45.8736 21H44.2255L40.8232 11.5455H42.3651ZM51.8958 21.157C51.4464 21.157 51.0402 21.0739 50.677 20.9077C50.3139 20.7384 50.0261 20.4937 49.8137 20.1737C49.6045 19.8536 49.4998 19.4612 49.4998 18.9964C49.4998 18.5964 49.5768 18.267 49.7306 18.0085C49.8845 17.75 50.0923 17.5453 50.3539 17.3945C50.6155 17.2437 50.9078 17.1299 51.231 17.0529C51.5542 16.976 51.8835 16.9175 52.2189 16.8775C52.6436 16.8282 52.9883 16.7882 53.253 16.7575C53.5177 16.7236 53.71 16.6697 53.8301 16.5959C53.9501 16.522 54.0101 16.402 54.0101 16.2358V16.2035C54.0101 15.8003 53.8962 15.4879 53.6685 15.2663C53.4438 15.0447 53.1084 14.9339 52.6621 14.9339C52.1974 14.9339 51.8311 15.037 51.5634 15.2433C51.2987 15.4464 51.1156 15.6726 51.014 15.9219L49.7168 15.6264C49.8707 15.1955 50.0953 14.8478 50.3908 14.5831C50.6893 14.3153 51.0325 14.1214 51.4203 14.0014C51.8081 13.8783 52.2158 13.8168 52.6436 13.8168C52.9268 13.8168 53.2269 13.8506 53.5439 13.9183C53.8639 13.983 54.1625 14.103 54.4395 14.2784C54.7195 14.4538 54.9488 14.7047 55.1273 15.0309C55.3058 15.354 55.3951 15.7741 55.3951 16.2912V21H54.0471V20.0305H53.9917C53.9024 20.209 53.7685 20.3845 53.59 20.5568C53.4115 20.7292 53.1822 20.8723 52.9022 20.9862C52.6221 21.1 52.2866 21.157 51.8958 21.157ZM52.1958 20.049C52.5775 20.049 52.9037 19.9736 53.1745 19.8228C53.4484 19.672 53.6562 19.475 53.7978 19.2319C53.9424 18.9857 54.0147 18.7225 54.0147 18.4425V17.5284C53.9655 17.5777 53.8701 17.6238 53.7285 17.6669C53.59 17.7069 53.4315 17.7423 53.253 17.7731C53.0745 17.8008 52.9006 17.8269 52.7314 17.8516C52.5621 17.8731 52.4205 17.8916 52.3066 17.907C52.0389 17.9408 51.7942 17.9978 51.5726 18.0778C51.3541 18.1578 51.1787 18.2732 51.0463 18.424C50.9171 18.5717 50.8525 18.7687 50.8525 19.0149C50.8525 19.3565 50.9786 19.6151 51.231 19.7905C51.4834 19.9628 51.805 20.049 52.1958 20.049ZM58.6139 11.5455V21H57.2336V11.5455H58.6139ZM62.5344 21.157C62.0851 21.157 61.6789 21.0739 61.3157 20.9077C60.9525 20.7384 60.6648 20.4937 60.4524 20.1737C60.2431 19.8536 60.1385 19.4612 60.1385 18.9964C60.1385 18.5964 60.2154 18.267 60.3693 18.0085C60.5232 17.75 60.7309 17.5453 60.9925 17.3945C61.2541 17.2437 61.5465 17.1299 61.8697 17.0529C62.1928 16.976 62.5221 16.9175 62.8576 16.8775C63.2823 16.8282 63.627 16.7882 63.8917 16.7575C64.1564 16.7236 64.3487 16.6697 64.4688 16.5959C64.5888 16.522 64.6488 16.402 64.6488 16.2358V16.2035C64.6488 15.8003 64.5349 15.4879 64.3072 15.2663C64.0825 15.0447 63.747 14.9339 63.3008 14.9339C62.8361 14.9339 62.4698 15.037 62.2021 15.2433C61.9374 15.4464 61.7543 15.6726 61.6527 15.9219L60.3555 15.6264C60.5094 15.1955 60.734 14.8478 61.0295 14.5831C61.328 14.3153 61.6712 14.1214 62.0589 14.0014C62.4467 13.8783 62.8545 13.8168 63.2823 13.8168C63.5655 13.8168 63.8655 13.8506 64.1825 13.9183C64.5026 13.983 64.8011 14.103 65.0781 14.2784C65.3582 14.4538 65.5875 14.7047 65.766 15.0309C65.9445 15.354 66.0337 15.7741 66.0337 16.2912V21H64.6857V20.0305H64.6303C64.5411 20.209 64.4072 20.3845 64.2287 20.5568C64.0502 20.7292 63.8209 20.8723 63.5408 20.9862C63.2608 21.1 62.9253 21.157 62.5344 21.157ZM62.8345 20.049C63.2161 20.049 63.5424 19.9736 63.8132 19.8228C64.0871 19.672 64.2949 19.475 64.4364 19.2319C64.5811 18.9857 64.6534 18.7225 64.6534 18.4425V17.5284C64.6042 17.5777 64.5088 17.6238 64.3672 17.6669C64.2287 17.7069 64.0702 17.7423 63.8917 17.7731C63.7132 17.8008 63.5393 17.8269 63.37 17.8516C63.2008 17.8731 63.0592 17.8916 62.9453 17.907C62.6776 17.9408 62.4329 17.9978 62.2113 18.0778C61.9928 18.1578 61.8174 18.2732 61.685 18.424C61.5558 18.5717 61.4911 18.7687 61.4911 19.0149C61.4911 19.3565 61.6173 19.6151 61.8697 19.7905C62.122 19.9628 62.4437 20.049 62.8345 20.049ZM67.8722 21V13.9091H69.2526V21H67.8722ZM68.5693 12.815C68.3293 12.815 68.1231 12.735 67.9507 12.5749C67.7815 12.4118 67.6968 12.2179 67.6968 11.9933C67.6968 11.7655 67.7815 11.5716 67.9507 11.4116C68.1231 11.2485 68.3293 11.1669 68.5693 11.1669C68.8094 11.1669 69.0141 11.2485 69.1833 11.4116C69.3557 11.5716 69.4419 11.7655 69.4419 11.9933C69.4419 12.2179 69.3557 12.4118 69.1833 12.5749C69.0141 12.735 68.8094 12.815 68.5693 12.815ZM74.4196 13.9091V15.017H70.5463V13.9091H74.4196ZM71.585 12.2102H72.9654V18.918C72.9654 19.1857 73.0054 19.3873 73.0854 19.5227C73.1654 19.6551 73.2685 19.7459 73.3947 19.7951C73.524 19.8413 73.664 19.8643 73.8148 19.8643C73.9256 19.8643 74.0225 19.8567 74.1056 19.8413C74.1887 19.8259 74.2534 19.8136 74.2995 19.8043L74.5488 20.9446C74.4688 20.9754 74.3549 21.0062 74.2072 21.0369C74.0595 21.0708 73.8748 21.0893 73.6532 21.0923C73.2901 21.0985 72.9515 21.0339 72.6376 20.8984C72.3237 20.763 72.0698 20.5537 71.8759 20.2706C71.682 19.9875 71.585 19.632 71.585 19.2042V12.2102ZM77.4791 16.7898V21H76.0988V11.5455H77.4607V15.0632H77.5484C77.7146 14.6816 77.9685 14.3784 78.3101 14.1538C78.6517 13.9291 79.098 13.8168 79.6489 13.8168C80.1352 13.8168 80.5599 13.9168 80.923 14.1168C81.2893 14.3169 81.5724 14.6154 81.7725 15.0124C81.9756 15.4064 82.0771 15.8988 82.0771 16.4897V21H80.6968V16.6559C80.6968 16.1358 80.5629 15.7326 80.2952 15.4464C80.0274 15.1571 79.655 15.0124 79.178 15.0124C78.8518 15.0124 78.5594 15.0817 78.3009 15.2202C78.0454 15.3587 77.8438 15.5618 77.6961 15.8295C77.5515 16.0942 77.4791 16.4143 77.4791 16.7898ZM85.9827 21.157C85.5334 21.157 85.1271 21.0739 84.7639 20.9077C84.4008 20.7384 84.113 20.4937 83.9007 20.1737C83.6914 19.8536 83.5867 19.4612 83.5867 18.9964C83.5867 18.5964 83.6637 18.267 83.8176 18.0085C83.9714 17.75 84.1792 17.5453 84.4408 17.3945C84.7024 17.2437 84.9948 17.1299 85.3179 17.0529C85.6411 16.976 85.9704 16.9175 86.3058 16.8775C86.7306 16.8282 87.0753 16.7882 87.3399 16.7575C87.6046 16.7236 87.797 16.6697 87.917 16.5959C88.037 16.522 88.097 16.402 88.097 16.2358V16.2035C88.097 15.8003 87.9832 15.4879 87.7554 15.2663C87.5307 15.0447 87.1953 14.9339 86.749 14.9339C86.2843 14.9339 85.9181 15.037 85.6503 15.2433C85.3856 15.4464 85.2025 15.6726 85.1009 15.9219L83.8037 15.6264C83.9576 15.1955 84.1823 14.8478 84.4777 14.5831C84.7762 14.3153 85.1194 14.1214 85.5072 14.0014C85.895 13.8783 86.3028 13.8168 86.7306 13.8168C87.0137 13.8168 87.3138 13.8506 87.6308 13.9183C87.9508 13.983 88.2494 14.103 88.5264 14.2784C88.8064 14.4538 89.0357 14.7047 89.2142 15.0309C89.3927 15.354 89.482 15.7741 89.482 16.2912V21H88.134V20.0305H88.0786C87.9893 20.209 87.8554 20.3845 87.6769 20.5568C87.4984 20.7292 87.2691 20.8723 86.9891 20.9862C86.709 21.1 86.3735 21.157 85.9827 21.157ZM86.2828 20.049C86.6644 20.049 86.9906 19.9736 87.2615 19.8228C87.5354 19.672 87.7431 19.475 87.8847 19.2319C88.0293 18.9857 88.1017 18.7225 88.1017 18.4425V17.5284C88.0524 17.5777 87.957 17.6238 87.8154 17.6669C87.6769 17.7069 87.5184 17.7423 87.3399 17.7731C87.1614 17.8008 86.9875 17.8269 86.8183 17.8516C86.649 17.8731 86.5074 17.8916 86.3936 17.907C86.1258 17.9408 85.8811 17.9978 85.6595 18.0778C85.441 18.1578 85.2656 18.2732 85.1333 18.424C85.004 18.5717 84.9394 18.7687 84.9394 19.0149C84.9394 19.3565 85.0655 19.6151 85.3179 19.7905C85.5703 19.9628 85.8919 20.049 86.2828 20.049ZM92.7008 11.5455V21H91.3205V11.5455H92.7008ZM96.6214 21.157C96.172 21.157 95.7658 21.0739 95.4026 20.9077C95.0394 20.7384 94.7517 20.4937 94.5393 20.1737C94.33 19.8536 94.2254 19.4612 94.2254 18.9964C94.2254 18.5964 94.3023 18.267 94.4562 18.0085C94.6101 17.75 94.8179 17.5453 95.0795 17.3945C95.3411 17.2437 95.6334 17.1299 95.9566 17.0529C96.2797 16.976 96.609 16.9175 96.9445 16.8775C97.3692 16.8282 97.7139 16.7882 97.9786 16.7575C98.2433 16.7236 98.4356 16.6697 98.5557 16.5959C98.6757 16.522 98.7357 16.402 98.7357 16.2358V16.2035C98.7357 15.8003 98.6218 15.4879 98.3941 15.2663C98.1694 15.0447 97.834 14.9339 97.3877 14.9339C96.923 14.9339 96.5567 15.037 96.289 15.2433C96.0243 15.4464 95.8412 15.6726 95.7396 15.9219L94.4424 15.6264C94.5963 15.1955 94.8209 14.8478 95.1164 14.5831C95.4149 14.3153 95.7581 14.1214 96.1459 14.0014C96.5336 13.8783 96.9414 13.8168 97.3692 13.8168C97.6524 13.8168 97.9524 13.8506 98.2694 13.9183C98.5895 13.983 98.8881 14.103 99.165 14.2784C99.4451 14.4538 99.6744 14.7047 99.8529 15.0309C100.031 15.354 100.121 15.7741 100.121 16.2912V21H98.7726V20.0305H98.7172C98.628 20.209 98.4941 20.3845 98.3156 20.5568C98.1371 20.7292 97.9078 20.8723 97.6278 20.9862C97.3477 21.1 97.0122 21.157 96.6214 21.157ZM96.9214 20.049C97.3031 20.049 97.6293 19.9736 97.9001 19.8228C98.174 19.672 98.3818 19.475 98.5233 19.2319C98.668 18.9857 98.7403 18.7225 98.7403 18.4425V17.5284C98.6911 17.5777 98.5957 17.6238 98.4541 17.6669C98.3156 17.7069 98.1571 17.7423 97.9786 17.7731C97.8001 17.8008 97.6262 17.8269 97.4569 17.8516C97.2877 17.8731 97.1461 17.8916 97.0322 17.907C96.7645 17.9408 96.5198 17.9978 96.2982 18.0778C96.0797 18.1578 95.9043 18.2732 95.7719 18.424C95.6427 18.5717 95.578 18.7687 95.578 19.0149C95.578 19.3565 95.7042 19.6151 95.9566 19.7905C96.209 19.9628 96.5306 20.049 96.9214 20.049ZM101.959 21V13.9091H103.284V15.0632H103.372C103.52 14.6723 103.761 14.3677 104.097 14.1491C104.432 13.9276 104.834 13.8168 105.301 13.8168C105.775 13.8168 106.172 13.9276 106.493 14.1491C106.816 14.3707 107.054 14.6754 107.208 15.0632H107.282C107.451 14.6847 107.721 14.383 108.09 14.1584C108.459 13.9306 108.899 13.8168 109.41 13.8168C110.053 13.8168 110.578 14.0183 110.984 14.4215C111.394 14.8247 111.598 15.4325 111.598 16.245V21H110.218V16.3743C110.218 15.8942 110.087 15.5464 109.826 15.331C109.564 15.1155 109.252 15.0078 108.888 15.0078C108.439 15.0078 108.09 15.1463 107.841 15.4233C107.591 15.6972 107.467 16.0496 107.467 16.4805V21H106.091V16.2866C106.091 15.9019 105.971 15.5926 105.731 15.3587C105.491 15.1248 105.178 15.0078 104.794 15.0078C104.532 15.0078 104.29 15.0771 104.069 15.2156C103.85 15.351 103.673 15.5402 103.538 15.7834C103.406 16.0265 103.339 16.3081 103.339 16.6282V21H101.959Z" fill="#18181B"/>
</svg>
